# xmcd CD database file
#
# Track frame offsets:
#	150
#	13408
#	22791
#	35403
#	46372
#	56636
#	71857
#	93614
#	106551
#	114435
#	121538
#	134119
#	145793
#	156234
#	168745
#	177548
#	192062
#	201670
#	211233
#	218386
#
# Disc length: 3091 seconds
#
# Revision: 2
# Processed by: cddbd v1.5.1PL0 Copyright (c) Steve Scherf et al.
# Submitted via: CDex 1.51
#
DISCID=240c1114
DTITLE=Sampler - Golden Country Hits CD2
DYEAR=1900
DGENRE=Country
TTITLE0=Ferlin Husky - Good Old Country Music Is Here
TTITLE1=Oak Ridge Quartett - I Know My Savior Is Here
TTITLE2=Patsy Cline - Yes, I Understand
TTITLE3=Faron Young - Live Fast, Love Hard, Die Young
TTITLE4=Connie Smith - Because I Love You That's Why
TTITLE5=Eddie Raven - You're Too Mouch For Me
TTITLE6=Dottie West - Crazy, Fall To Pieces, Sweet Dreams, Crazy
TTITLE7=Glen Yarborough - Waltzing Matilda
TTITLE8=Hoyt Axton - I Love To Sing
TTITLE9=Jimmy Dean - The Last Letter
TTITLE10=Terri Gibbs - Reckless Lovin'
TTITLE11=Freddy Fender - Donna
TTITLE12=Jackson Stonewall - Things To Talk About
TTITLE13=Faron Young - It's Four In The Morning
TTITLE14=Anne Murray - Paths Of Victory
TTITLE15=Don Williams - When I'm With You
TTITLE16=Kitty Wells - Whose Shoulder Will You Cry On
TTITLE17=Faron Young - Alone With You
TTITLE18=Barbara Mandrell - Kentucky Means Paradise
TTITLE19=Don Williams - I'm Just A Country Boy
EXTD=
EXTT0=
EXTT1=
EXTT2=
EXTT3=
EXTT4=
EXTT5=
EXTT6=
EXTT7=
EXTT8=
EXTT9=
EXTT10=
EXTT11=
EXTT12=
EXTT13=
EXTT14=
EXTT15=
EXTT16=
EXTT17=
EXTT18=
EXTT19=
PLAYORDER=
